<svg width="36" height="36" viewBox="0 0 36 36" fill="none" xmlns="http://www.w3.org/2000/svg">
<path fill-rule="evenodd" clip-rule="evenodd" d="M18 0C8.05888 0 0 8.05888 0 18C0 27.9411 8.05888 36 18 36C27.9411 36 36 27.9411 36 18C36 8.05888 27.9411 0 18 0ZM27.5396 15.1636C27.5471 15.1828 27.5535 15.2019 27.5727 15.2606C27.5783 15.2816 27.5823 15.3036 27.5922 15.3578L27.593 15.3624C27.5977 15.3961 27.6 15.431 27.6 15.4664V21.1336C27.6 21.1685 27.5977 21.2033 27.5866 21.2725C27.5826 21.2952 27.5785 21.3173 27.5599 21.3783C27.5535 21.3975 27.5471 21.4172 27.5215 21.4754C27.5134 21.4934 27.5047 21.5108 27.4715 21.5655C27.4611 21.5823 27.45 21.598 27.4105 21.6486C27.3977 21.6631 27.3844 21.6782 27.339 21.723C27.3239 21.7364 27.3088 21.7491 27.2937 21.7613C27.2908 21.7635 27.288 21.7657 27.285 21.768C27.2752 21.7755 27.2638 21.7843 27.2443 21.7985L18.7435 27.4657C18.6092 27.5552 18.4546 27.6 18.3 27.6C18.1454 27.6 17.9908 27.5552 17.8565 27.4657L9.35631 21.7985C9.35432 21.7973 9.35244 21.7958 9.34776 21.7922C9.34149 21.7874 9.33019 21.7786 9.3069 21.7613C9.29121 21.7491 9.27609 21.7364 9.22959 21.6916C9.21564 21.6782 9.20228 21.6631 9.16217 21.6137C9.15054 21.598 9.1395 21.5823 9.10579 21.5288C9.09591 21.5108 9.08719 21.4934 9.06103 21.437C9.05289 21.4172 9.0465 21.3975 9.0279 21.3394C9.02209 21.3173 9.01802 21.2952 9.00756 21.2382C9.00291 21.2033 9 21.1685 9 21.1336V15.4664C9 15.431 9.00291 15.3961 9.01395 15.3275C9.01802 15.3048 9.02209 15.2822 9.04011 15.2217C9.0465 15.2019 9.05289 15.1828 9.07847 15.1246C9.08719 15.106 9.09591 15.0886 9.12904 15.0345C9.1395 15.0177 9.15054 15.0014 9.19007 14.9514C9.20228 14.9363 9.21564 14.9218 9.26156 14.877C9.27609 14.8637 9.29121 14.8509 9.3069 14.8387C9.31853 14.8294 9.33015 14.8201 9.35631 14.8015L17.8565 9.13427C18.1256 8.95524 18.475 8.95524 18.7435 9.13427L27.2443 14.8015C27.2463 14.8027 27.2481 14.8042 27.2528 14.8078C27.2591 14.8126 27.2704 14.8214 27.2937 14.8387C27.3088 14.8509 27.3239 14.8637 27.3704 14.9078C27.3844 14.9218 27.3977 14.9363 27.4378 14.9857C27.45 15.0014 27.4611 15.0177 27.4942 15.0717C27.5047 15.0886 27.5134 15.106 27.5396 15.1636Z" fill="#80D6FF"/>
<path fill-rule="evenodd" clip-rule="evenodd" d="M19.0992 11.2932L25.3616 15.4678L22.5646 17.3388L19.0992 15.0208V11.2932ZM18.3 20.1908L15.4734 18.2999L18.3 16.4091L21.1272 18.2999L18.3 20.1908ZM19.0992 21.5798V25.3073L25.3616 21.1328L22.5646 19.2623L19.0992 21.5798ZM26.0016 19.6376L24.0021 18.3001L26.0016 16.9627V19.6376ZM11.2384 21.1328L17.5008 25.3073V21.5798L14.0359 19.2623L11.2384 21.1328ZM10.5984 16.9627L12.5985 18.3001L10.5984 19.6376V16.9627ZM17.5008 15.0208V11.2932L11.2384 15.4678L14.0359 17.3388L17.5008 15.0208Z" fill="#80D6FF"/>
</svg>
