<svg width="36" height="36" viewBox="0 0 36 36" fill="none" xmlns="http://www.w3.org/2000/svg">
<path fill-rule="evenodd" clip-rule="evenodd" d="M18.0002 0C8.06025 0 0 8.05957 0 18.0023C0 25.9564 5.15759 32.7045 12.3096 35.085C13.2092 35.2516 13.5395 34.6944 13.5395 34.2189C13.5395 33.7897 13.5228 32.3715 13.515 30.8672C8.50736 31.9562 7.45068 28.7432 7.45068 28.7432C6.63187 26.6623 5.45209 26.109 5.45209 26.109C3.81894 24.9917 5.57519 25.0146 5.57519 25.0146C7.38272 25.1413 8.33447 26.8698 8.33447 26.8698C9.93991 29.622 12.5454 28.8263 13.5725 28.3663C13.7341 27.2031 14.2006 26.4083 14.7154 25.9591C10.7173 25.5038 6.51443 23.9602 6.51443 17.0621C6.51443 15.0966 7.21759 13.4906 8.36905 12.2299C8.18216 11.7762 7.56604 9.94545 8.54342 7.46572C8.54342 7.46572 10.055 6.98188 13.4947 9.31106C14.9306 8.91218 16.4704 8.71214 18.0002 8.70529C19.5299 8.71214 21.0709 8.91218 22.5094 9.31106C25.945 6.98188 27.4545 7.46572 27.4545 7.46572C28.4343 9.94545 27.8178 11.7762 27.631 12.2299C28.7851 13.4906 29.4835 15.0966 29.4835 17.0621C29.4835 23.9766 25.2726 25.4991 21.2644 25.9447C21.91 26.5034 22.4853 27.599 22.4853 29.2786C22.4853 31.6871 22.4644 33.6257 22.4644 34.2189C22.4644 34.698 22.7884 35.2594 23.7008 35.0826C30.849 32.6995 36 25.9537 36 18.0023C36 8.05957 27.9409 0 18.0002 0Z" fill="#80D6FF"/>
<path fill-rule="evenodd" clip-rule="evenodd" d="M6.81756 25.8477C6.77792 25.9374 6.63723 25.964 6.50905 25.9025C6.3785 25.8438 6.30517 25.7219 6.3475 25.6322C6.38625 25.54 6.52724 25.5147 6.6575 25.5758C6.78835 25.6348 6.86287 25.758 6.81756 25.8477Z" fill="#80D6FF"/>
<path fill-rule="evenodd" clip-rule="evenodd" d="M7.54666 26.6603C7.46081 26.7399 7.293 26.7029 7.17913 26.5771C7.06139 26.4516 7.03934 26.2838 7.12637 26.203C7.2149 26.1234 7.37765 26.1607 7.49569 26.2862C7.61343 26.4132 7.63638 26.5798 7.54666 26.6603Z" fill="#80D6FF"/>
<path fill-rule="evenodd" clip-rule="evenodd" d="M8.25639 27.6973C8.1461 27.774 7.96577 27.7021 7.85429 27.542C7.744 27.3819 7.744 27.1899 7.85667 27.113C7.96845 27.0361 8.1461 27.1053 8.25907 27.2642C8.36906 27.4266 8.36906 27.6189 8.25639 27.6973Z" fill="#80D6FF"/>
<path fill-rule="evenodd" clip-rule="evenodd" d="M9.2287 28.6996C9.13003 28.8085 8.91989 28.7792 8.76608 28.6308C8.6087 28.4856 8.56488 28.2796 8.66384 28.1708C8.7637 28.0617 8.97503 28.0924 9.13003 28.2396C9.28622 28.3845 9.33392 28.592 9.2287 28.6996Z" fill="#80D6FF"/>
<path fill-rule="evenodd" clip-rule="evenodd" d="M10.57 29.2809C10.5265 29.4219 10.3241 29.486 10.1202 29.4261C9.91666 29.3644 9.78342 29.1992 9.82455 29.0567C9.86688 28.9148 10.0702 28.848 10.2755 28.9121C10.4788 28.9735 10.6124 29.1375 10.57 29.2809Z" fill="#80D6FF"/>
<path fill-rule="evenodd" clip-rule="evenodd" d="M12.0431 29.3887C12.0482 29.5372 11.8753 29.6603 11.6613 29.6627C11.4461 29.6678 11.272 29.5476 11.2696 29.4015C11.2696 29.2516 11.4386 29.1297 11.6538 29.1261C11.8679 29.1219 12.0431 29.2412 12.0431 29.3887Z" fill="#80D6FF"/>
<path fill-rule="evenodd" clip-rule="evenodd" d="M13.414 29.156C13.4396 29.3009 13.2909 29.4497 13.0783 29.489C12.8694 29.5275 12.6759 29.4381 12.6494 29.2944C12.6235 29.1459 12.7749 28.9971 12.9835 28.9587C13.1964 28.9217 13.3868 29.0088 13.414 29.156Z" fill="#80D6FF"/>
</svg>
