<svg width="35" height="35" viewBox="0 0 35 35" fill="none" xmlns="http://www.w3.org/2000/svg">
<path fill-rule="evenodd" clip-rule="evenodd" d="M17.5 35C27.165 35 35 27.165 35 17.5C35 7.83502 27.165 0 17.5 0C7.83502 0 0 7.83502 0 17.5C0 27.165 7.83502 35 17.5 35ZM14.2917 25.5208C14.7173 25.5208 14.9118 25.3315 15.1469 25.1026L15.1667 25.0833L17.2688 23.0393L21.6417 26.2701C22.4465 26.7141 23.0273 26.4842 23.2278 25.5229L26.0985 11.995C26.3924 10.8166 25.6493 10.2822 24.8794 10.6317L8.02253 17.1316C6.87189 17.5931 6.8786 18.2351 7.81279 18.5211L12.1386 19.8713L22.1535 13.5531C22.6262 13.2664 23.0601 13.4205 22.704 13.7366L14.5895 21.0593L14.5892 21.0596L14.5894 21.0598L14.2917 25.5208Z" fill="#80D6FF"/>
</svg>
